<mxfile host="app.diagrams.net" modified="2023-08-01T18:42:10.132Z" agent="Mozilla/5.0 (Windows NT 10.0; Win64; x64) AppleWebKit/537.36 (KHTML, like Gecko) Chrome/115.0.0.0 Safari/537.36" etag="O-WpzDg7P9UwvDpNEeMg" version="21.6.6" type="github">
  <diagram name="Page-1" id="Qcwj0DcQknoH6E7RdbKT">
    <mxGraphModel dx="2216" dy="690" grid="1" gridSize="10" guides="1" tooltips="1" connect="1" arrows="1" fold="1" page="1" pageScale="1" pageWidth="850" pageHeight="1100" math="0" shadow="0">
      <root>
        <mxCell id="0" />
        <mxCell id="1" parent="0" />
        <mxCell id="DobWFJTyCspcOY41nrCe-1" value="&lt;font style=&quot;font-size: 29px;&quot;&gt;Discord Client&lt;/font&gt;" style="rounded=0;whiteSpace=wrap;html=1;" vertex="1" parent="1">
          <mxGeometry x="-190" y="890" width="390" height="150" as="geometry" />
        </mxCell>
        <mxCell id="DobWFJTyCspcOY41nrCe-2" value="" style="shape=flexArrow;endArrow=classic;startArrow=classic;html=1;rounded=0;endWidth=14;endSize=7.44;" edge="1" parent="1">
          <mxGeometry width="100" height="100" relative="1" as="geometry">
            <mxPoint y="865" as="sourcePoint" />
            <mxPoint y="725" as="targetPoint" />
            <Array as="points" />
          </mxGeometry>
        </mxCell>
        <mxCell id="DobWFJTyCspcOY41nrCe-3" value="&lt;font style=&quot;font-size: 16px;&quot;&gt;Discord API&lt;/font&gt;" style="text;html=1;align=center;verticalAlign=middle;resizable=0;points=[];autosize=1;strokeColor=none;fillColor=none;" vertex="1" parent="1">
          <mxGeometry x="30" y="780" width="110" height="30" as="geometry" />
        </mxCell>
        <mxCell id="DobWFJTyCspcOY41nrCe-4" value="&lt;font style=&quot;font-size: 29px;&quot;&gt;Serenity&lt;/font&gt;" style="rounded=0;whiteSpace=wrap;html=1;" vertex="1" parent="1">
          <mxGeometry x="-190" y="550" width="390" height="150" as="geometry" />
        </mxCell>
        <mxCell id="DobWFJTyCspcOY41nrCe-5" value="&lt;font style=&quot;font-size: 25px;&quot;&gt;Rust (Discord API Wrapper)&lt;/font&gt;" style="text;html=1;align=center;verticalAlign=middle;resizable=0;points=[];autosize=1;strokeColor=none;fillColor=none;" vertex="1" parent="1">
          <mxGeometry x="200" y="660" width="330" height="40" as="geometry" />
        </mxCell>
        <mxCell id="DobWFJTyCspcOY41nrCe-6" value="" style="shape=flexArrow;endArrow=classic;startArrow=classic;html=1;rounded=0;endWidth=14;endSize=7.44;" edge="1" parent="1">
          <mxGeometry width="100" height="100" relative="1" as="geometry">
            <mxPoint y="530" as="sourcePoint" />
            <mxPoint y="390" as="targetPoint" />
            <Array as="points" />
          </mxGeometry>
        </mxCell>
        <mxCell id="DobWFJTyCspcOY41nrCe-8" value="&lt;font style=&quot;font-size: 16px;&quot;&gt;OpenAI API&lt;/font&gt;" style="text;html=1;align=center;verticalAlign=middle;resizable=0;points=[];autosize=1;strokeColor=none;fillColor=none;" vertex="1" parent="1">
          <mxGeometry x="25" y="450" width="110" height="30" as="geometry" />
        </mxCell>
        <mxCell id="DobWFJTyCspcOY41nrCe-9" value="&lt;font style=&quot;font-size: 29px;&quot;&gt;ChatGPT&lt;/font&gt;" style="rounded=0;whiteSpace=wrap;html=1;" vertex="1" parent="1">
          <mxGeometry x="-190" y="210" width="390" height="150" as="geometry" />
        </mxCell>
        <mxCell id="DobWFJTyCspcOY41nrCe-10" value="&lt;font style=&quot;font-size: 25px;&quot;&gt;Rust (OpenAI API Wrapper)&lt;/font&gt;" style="text;html=1;align=center;verticalAlign=middle;resizable=0;points=[];autosize=1;strokeColor=none;fillColor=none;" vertex="1" parent="1">
          <mxGeometry x="200" y="320" width="330" height="40" as="geometry" />
        </mxCell>
      </root>
    </mxGraphModel>
  </diagram>
</mxfile>
